<!-- Generated by IcoMoon.io -->
<svg version="1.1" xmlns="http://www.w3.org/2000/svg" width="23" height="32" viewBox="0 0 23 32">
<title>example_2</title>
<path d="M20.339 18.169c0 4.268-3.4 7.729-7.593 7.729s-7.593-3.46-7.593-7.729c0-4.268 3.4-7.729 7.593-7.729s7.593 3.46 7.593 7.729z"></path>
<path d="M9.356 11.932c0 1.198-1.002 2.17-2.237 2.17s-2.237-0.971-2.237-2.169c0-1.198 1.002-2.169 2.237-2.169s2.237 0.971 2.237 2.169z"></path>
<path d="M20.678 12.203c0 1.198-1.002 2.17-2.237 2.17s-2.237-0.971-2.237-2.169c0-1.198 1.002-2.169 2.237-2.169s2.237 0.971 2.237 2.169z"></path>
</svg>
